<svg width="112" height="40" viewBox="0 0 112 40" fill="none" xmlns="http://www.w3.org/2000/svg">
<path d="M9.4 34.7L21.8 19.55C23.55 17.4 24.6 14.6 24.6 11.8C24.6 5.25 19.1 0.499998 12.7 0.499998C5.85 0.499998 1.5 5 0.75 11.7H5.45C5.7 7.9 8.85 4.8 12.7 4.8C16.6 4.8 20.1 8.05 20.1 12C20.1 14.5 18.3 16.85 16.75 18.75L0.25 39H24.6V34.7H9.4ZM41.3563 39.8C51.0563 39.8 54.5063 27.85 54.5063 20.15C54.5063 12.4 51.1063 0.499998 41.3563 0.499998C31.6063 0.499998 28.2063 12.4 28.2063 20.15C28.2063 27.85 31.6563 39.8 41.3563 39.8ZM41.3563 4.5C48.1063 4.5 50.0063 14.9 50.0063 20.1C50.0063 25.3 48.1063 35.6 41.3563 35.6C34.6063 35.6 32.7063 25.3 32.7063 20.1C32.7063 14.9 34.6063 4.5 41.3563 4.5ZM67.2125 34.7L79.6125 19.55C81.3625 17.4 82.4125 14.6 82.4125 11.8C82.4125 5.25 76.9125 0.499998 70.5125 0.499998C63.6625 0.499998 59.3125 5 58.5625 11.7H63.2625C63.5125 7.9 66.6625 4.8 70.5125 4.8C74.4125 4.8 77.9125 8.05 77.9125 12C77.9125 14.5 76.1125 16.85 74.5625 18.75L58.0625 39H82.4125V34.7H67.2125ZM111.119 5.6V1.3H96.0188L90.2188 20.65H91.1188C92.7688 18.55 95.5188 17.3 98.1688 17.3C103.019 17.3 107.169 21.4 107.169 26.25C107.169 31.3 103.169 35.5 98.0688 35.5C94.7188 35.5 90.8688 33.1 89.7188 29.9L86.2188 33.2C88.4188 37.35 93.0688 39.8 97.7188 39.8C105.469 39.8 111.669 34.35 111.669 26.4C111.669 19.45 106.869 13.2 99.5688 13.2L96.9188 13.35L99.2688 5.6H111.119Z" fill="white"/>
</svg>
