<svg width="237" height="79" viewBox="0 0 237 79" fill="none" xmlns="http://www.w3.org/2000/svg">
<path d="M23.0488 66.3066H51.125V77H0.490234L26.6621 45.3105C29.2337 42.153 31.3822 39.4186 33.1074 37.1074C34.8652 34.7962 36.1999 32.8594 37.1113 31.2969C38.9668 28.237 39.8945 25.4863 39.8945 23.0449C39.8945 19.5293 38.6576 16.5833 36.1836 14.207C33.7096 11.8307 30.6497 10.6426 27.0039 10.6426C19.3867 10.6426 15.0247 15.151 13.918 24.168H2.58984C4.41276 8.28255 12.4368 0.339844 26.6621 0.339844C33.5306 0.339844 39.2923 2.52083 43.9473 6.88281C48.6348 11.2448 50.9785 16.6484 50.9785 23.0938C50.9785 27.1953 49.888 31.2155 47.707 35.1543C46.6003 37.2051 44.9727 39.6465 42.8242 42.4785C40.7083 45.278 38.0228 48.5983 34.7676 52.4395L23.0488 66.3066ZM63.9668 38.8164C63.9668 26.8047 66.7663 17.2181 72.3652 10.0566C77.3783 3.57878 83.4492 0.339844 90.5781 0.339844C97.707 0.339844 103.778 3.57878 108.791 10.0566C114.39 17.2181 117.189 26.9674 117.189 39.3047C117.189 51.6094 114.39 61.3424 108.791 68.5039C103.778 74.9818 97.7233 78.2207 90.627 78.2207C83.5306 78.2207 77.4434 74.9818 72.3652 68.5039C66.7663 61.3424 63.9668 51.4466 63.9668 38.8164ZM75.1484 38.8652C75.1484 47.2311 76.597 54.181 79.4941 59.7148C82.3913 65.151 86.0859 67.8691 90.5781 67.8691C95.0378 67.8691 98.7324 65.151 101.662 59.7148C104.592 54.3112 106.057 47.4915 106.057 39.2559C106.057 31.0202 104.592 24.1842 101.662 18.748C98.7324 13.3444 95.0378 10.6426 90.5781 10.6426C86.151 10.6426 82.4727 13.3444 79.543 18.748C76.6133 24.1191 75.1484 30.8249 75.1484 38.8652ZM146.486 66.3066H174.562V77H123.928L150.1 45.3105C152.671 42.153 154.82 39.4186 156.545 37.1074C158.303 34.7962 159.637 32.8594 160.549 31.2969C162.404 28.237 163.332 25.4863 163.332 23.0449C163.332 19.5293 162.095 16.5833 159.621 14.207C157.147 11.8307 154.087 10.6426 150.441 10.6426C142.824 10.6426 138.462 15.151 137.355 24.168H126.027C127.85 8.28255 135.874 0.339844 150.1 0.339844C156.968 0.339844 162.73 2.52083 167.385 6.88281C172.072 11.2448 174.416 16.6484 174.416 23.0938C174.416 27.1953 173.326 31.2155 171.145 35.1543C170.038 37.2051 168.41 39.6465 166.262 42.4785C164.146 45.278 161.46 48.5983 158.205 52.4395L146.486 66.3066ZM235.744 12.2539H212.502L208.791 24.7539C209.344 24.6888 209.865 24.64 210.354 24.6074C210.874 24.5749 211.346 24.5586 211.77 24.5586C219.094 24.5586 225.1 27.0326 229.787 31.9805C234.507 36.8958 236.867 43.1947 236.867 50.877C236.867 58.8197 234.198 65.3626 228.859 70.5059C223.521 75.6491 216.799 78.2207 208.693 78.2207C198.7 78.2207 190.822 73.5332 185.061 64.1582L193.654 56.8828C196.031 60.9193 198.423 63.7676 200.832 65.4277C203.241 67.0553 206.187 67.8691 209.67 67.8691C214.227 67.8691 218.052 66.2741 221.145 63.084C224.237 59.7962 225.783 55.8086 225.783 51.1211C225.783 46.3034 224.253 42.3646 221.193 39.3047C218.133 36.1471 214.309 34.5684 209.719 34.5684C204.608 34.5684 200.197 36.7982 196.486 41.2578H192.727L204.592 1.60938H235.744V12.2539Z" fill="white"/>
</svg>
