<svg width="241" height="79" viewBox="0 0 241 79" fill="none" xmlns="http://www.w3.org/2000/svg">
<path d="M23.0488 66.3066H51.125V77H0.490234L26.6621 45.3105C29.2337 42.153 31.3822 39.4186 33.1074 37.1074C34.8652 34.7962 36.1999 32.8594 37.1113 31.2969C38.9668 28.237 39.8945 25.4863 39.8945 23.0449C39.8945 19.5293 38.6576 16.5833 36.1836 14.207C33.7096 11.8307 30.6497 10.6426 27.0039 10.6426C19.3867 10.6426 15.0247 15.151 13.918 24.168H2.58984C4.41276 8.28255 12.4368 0.339844 26.6621 0.339844C33.5306 0.339844 39.2923 2.52083 43.9473 6.88281C48.6348 11.2448 50.9785 16.6484 50.9785 23.0938C50.9785 27.1953 49.888 31.2155 47.707 35.1543C46.6003 37.2051 44.9727 39.6465 42.8242 42.4785C40.7083 45.278 38.0228 48.5983 34.7676 52.4395L23.0488 66.3066ZM63.9668 38.8164C63.9668 26.8047 66.7663 17.2181 72.3652 10.0566C77.3783 3.57878 83.4492 0.339844 90.5781 0.339844C97.707 0.339844 103.778 3.57878 108.791 10.0566C114.39 17.2181 117.189 26.9674 117.189 39.3047C117.189 51.6094 114.39 61.3424 108.791 68.5039C103.778 74.9818 97.7233 78.2207 90.627 78.2207C83.5306 78.2207 77.4434 74.9818 72.3652 68.5039C66.7663 61.3424 63.9668 51.4466 63.9668 38.8164ZM75.1484 38.8652C75.1484 47.2311 76.597 54.181 79.4941 59.7148C82.3913 65.151 86.0859 67.8691 90.5781 67.8691C95.0378 67.8691 98.7324 65.151 101.662 59.7148C104.592 54.3112 106.057 47.4915 106.057 39.2559C106.057 31.0202 104.592 24.1842 101.662 18.748C98.7324 13.3444 95.0378 10.6426 90.5781 10.6426C86.151 10.6426 82.4727 13.3444 79.543 18.748C76.6133 24.1191 75.1484 30.8249 75.1484 38.8652ZM147.316 41.9902V32.2734C152.134 32.2734 155.373 31.7363 157.033 30.6621C159.995 28.7741 161.477 25.7467 161.477 21.5801C161.477 18.3574 160.402 15.737 158.254 13.7188C156.138 11.668 153.387 10.6426 150.002 10.6426C146.844 10.6426 144.403 11.4076 142.678 12.9375C141.018 14.5 139.781 17.1367 138.967 20.8477H127.639C128.811 13.7513 131.219 8.55924 134.865 5.27148C138.511 1.95117 143.605 0.291016 150.148 0.291016C156.757 0.291016 162.144 2.24414 166.311 6.15039C170.477 10.0241 172.561 15.0208 172.561 21.1406C172.561 28.0417 169.826 33.4128 164.357 37.2539C170.607 40.9323 173.732 46.9056 173.732 55.1738C173.732 61.9447 171.454 67.4785 166.896 71.7754C162.339 76.0723 156.496 78.2207 149.367 78.2207C140.285 78.2207 133.547 74.8841 129.152 68.2109C127.329 65.4115 126.174 61.5378 125.686 56.5898H136.672C137.258 60.2357 138.674 63.0352 140.92 64.9883C143.199 66.9089 146.161 67.8691 149.807 67.8691C153.485 67.8691 156.529 66.6484 158.938 64.207C161.346 61.7005 162.551 58.5267 162.551 54.6855C162.551 49.6074 160.744 45.9941 157.131 43.8457C155.015 42.6087 151.743 41.9902 147.316 41.9902ZM187.404 38.8164C187.404 26.8047 190.204 17.2181 195.803 10.0566C200.816 3.57878 206.887 0.339844 214.016 0.339844C221.145 0.339844 227.215 3.57878 232.229 10.0566C237.827 17.2181 240.627 26.9674 240.627 39.3047C240.627 51.6094 237.827 61.3424 232.229 68.5039C227.215 74.9818 221.161 78.2207 214.064 78.2207C206.968 78.2207 200.881 74.9818 195.803 68.5039C190.204 61.3424 187.404 51.4466 187.404 38.8164ZM198.586 38.8652C198.586 47.2311 200.035 54.181 202.932 59.7148C205.829 65.151 209.523 67.8691 214.016 67.8691C218.475 67.8691 222.17 65.151 225.1 59.7148C228.029 54.3112 229.494 47.4915 229.494 39.2559C229.494 31.0202 228.029 24.1842 225.1 18.748C222.17 13.3444 218.475 10.6426 214.016 10.6426C209.589 10.6426 205.91 13.3444 202.98 18.748C200.051 24.1191 198.586 30.8249 198.586 38.8652Z" fill="white"/>
</svg>
