<svg width="119" height="40" viewBox="0 0 119 40" fill="none" xmlns="http://www.w3.org/2000/svg">
<path d="M11.5244 33.6533H25.5625V39H0.245117L13.3311 23.1553C14.6169 21.5765 15.6911 20.2093 16.5537 19.0537C17.4326 17.8981 18.0999 16.9297 18.5557 16.1484C19.4834 14.6185 19.9473 13.2432 19.9473 12.0225C19.9473 10.2646 19.3288 8.79167 18.0918 7.60352C16.8548 6.41536 15.3249 5.82129 13.502 5.82129C9.69336 5.82129 7.51237 8.07552 6.95898 12.584H1.29492C2.20638 4.64128 6.21842 0.669922 13.3311 0.669922C16.7653 0.669922 19.6462 1.76042 21.9736 3.94141C24.3174 6.1224 25.4893 8.82422 25.4893 12.0469C25.4893 14.0977 24.944 16.1077 23.8535 18.0771C23.3001 19.1025 22.4863 20.3232 21.4121 21.7393C20.3542 23.139 19.0114 24.7992 17.3838 26.7197L11.5244 33.6533ZM31.9834 19.9082C31.9834 13.9023 33.3831 9.10905 36.1826 5.52832C38.6891 2.28939 41.7246 0.669922 45.2891 0.669922C48.8535 0.669922 51.889 2.28939 54.3955 5.52832C57.195 9.10905 58.5947 13.9837 58.5947 20.1523C58.5947 26.3047 57.195 31.1712 54.3955 34.752C51.889 37.9909 48.8617 39.6104 45.3135 39.6104C41.7653 39.6104 38.7217 37.9909 36.1826 34.752C33.3831 31.1712 31.9834 26.2233 31.9834 19.9082ZM37.5742 19.9326C37.5742 24.1156 38.2985 27.5905 39.7471 30.3574C41.1956 33.0755 43.043 34.4346 45.2891 34.4346C47.5189 34.4346 49.3662 33.0755 50.8311 30.3574C52.2959 27.6556 53.0283 24.2458 53.0283 20.1279C53.0283 16.0101 52.2959 12.5921 50.8311 9.87402C49.3662 7.1722 47.5189 5.82129 45.2891 5.82129C43.0755 5.82129 41.2363 7.1722 39.7715 9.87402C38.3066 12.5596 37.5742 15.9124 37.5742 19.9326ZM73.6582 21.4951V16.6367C76.0671 16.6367 77.6865 16.3682 78.5166 15.8311C79.9977 14.887 80.7383 13.3734 80.7383 11.29C80.7383 9.67871 80.2012 8.36849 79.127 7.35938C78.069 6.33398 76.6937 5.82129 75.001 5.82129C73.4222 5.82129 72.2015 6.20378 71.3389 6.96875C70.5088 7.75 69.8903 9.06836 69.4834 10.9238H63.8193C64.4053 7.37565 65.6097 4.77962 67.4326 3.13574C69.2555 1.47559 71.8027 0.645508 75.0742 0.645508C78.3783 0.645508 81.0719 1.62207 83.1553 3.5752C85.2386 5.51204 86.2803 8.01042 86.2803 11.0703C86.2803 14.5208 84.9131 17.2064 82.1787 19.127C85.3037 20.9661 86.8662 23.9528 86.8662 28.0869C86.8662 31.4723 85.7269 34.2393 83.4482 36.3877C81.1696 38.5361 78.248 39.6104 74.6836 39.6104C70.1426 39.6104 66.7734 37.9421 64.5762 34.6055C63.6647 33.2057 63.0869 31.2689 62.8428 28.7949H68.3359C68.6289 30.6178 69.3369 32.0176 70.46 32.9941C71.5993 33.9544 73.0804 34.4346 74.9033 34.4346C76.7425 34.4346 78.2643 33.8242 79.4688 32.6035C80.6732 31.3503 81.2754 29.7633 81.2754 27.8428C81.2754 25.3037 80.3721 23.4971 78.5654 22.4229C77.5075 21.8044 75.8717 21.4951 73.6582 21.4951ZM117.872 6.62695H106.251L104.396 12.877C104.672 12.8444 104.933 12.82 105.177 12.8037C105.437 12.7874 105.673 12.7793 105.885 12.7793C109.547 12.7793 112.55 14.0163 114.894 16.4902C117.254 18.9479 118.434 22.0973 118.434 25.9385C118.434 29.9098 117.099 33.1813 114.43 35.7529C111.76 38.3245 108.399 39.6104 104.347 39.6104C99.3499 39.6104 95.4111 37.2666 92.5303 32.5791L96.8271 28.9414C98.0153 30.9596 99.2116 32.3838 100.416 33.2139C101.62 34.0277 103.093 34.4346 104.835 34.4346C107.114 34.4346 109.026 33.637 110.572 32.042C112.118 30.3981 112.892 28.4043 112.892 26.0605C112.892 23.6517 112.127 21.6823 110.597 20.1523C109.067 18.5736 107.154 17.7842 104.859 17.7842C102.304 17.7842 100.099 18.8991 98.2432 21.1289H96.3633L102.296 1.30469H117.872V6.62695Z" fill="white"/>
</svg>
