<svg width="40" height="40" viewBox="0 0 40 40" fill="none" xmlns="http://www.w3.org/2000/svg">
<circle cx="20" cy="20" r="20" fill="#F9BE00"/>
<g clip-path="url(#clip0_392_2515)">
<path d="M16.6398 24.56L22.9598 18.24V23.76C22.9598 24.24 23.3598 24.56 23.7598 24.56C24.2398 24.56 24.5598 24.24 24.5598 23.76V16.32C24.5598 15.84 24.2398 15.52 23.7598 15.52H16.3198C15.8398 15.52 15.5198 15.84 15.5198 16.32C15.5198 16.8 15.8398 17.12 16.3198 17.12H21.8398L15.5198 23.44C15.1998 23.76 15.1998 24.24 15.5198 24.56C15.8398 24.88 16.3198 24.8 16.6398 24.56Z" fill="white"/>
</g>
<defs>
<clipPath id="clip0_392_2515">
<rect width="19.2" height="19.2" fill="white" transform="translate(10.3999 10.3999)"/>
</clipPath>
</defs>
</svg>
